<svg xmlns="http://www.w3.org/2000/svg" viewBox="0 0 1064.4 273.6"><defs><style>.cls-1{fill:#ededee;}.cls-2{fill:#43ade9;}</style></defs><g id="Layer_1" data-name="Layer 1"><path class="cls-1" d="M378.1,114.2H334.4v-38H463.6v38H419.9v228H378.1Z" transform="translate(-71.1 -72.4)"/><path class="cls-1" d="M489.1,76.2h56.6l43.3,266H547.2l-7.6-52.9v.8H492.1l-7.6,52.1H445.8ZM534.7,254,516.1,122.5h-.8L497.1,254Z" transform="translate(-71.1 -72.4)"/><path class="cls-1" d="M606.9,328.7q-15.6-17.4-15.6-49.6V263.9h39.5v18.2c0,17.2,7.3,25.9,21.7,25.9,7.1,0,12.5-2.1,16.1-6.3s5.6-11,5.6-20.3c0-11.2-2.6-21-7.6-29.5s-14.5-18.7-28.2-30.6q-25.8-22.8-36.1-41.2c-6.8-12.3-10.2-26.2-10.2-41.6q0-31.5,15.9-48.9c10.7-11.5,26.1-17.2,46.4-17.2s35.1,5.7,45.4,17.2,15.4,28.1,15.4,49.6v11.1H675.7V136.6c0-9.1-1.8-15.8-5.3-20s-8.8-6.2-15.6-6.2c-14,0-20.9,8.4-20.9,25.4a50.2,50.2,0,0,0,7.8,27c5.2,8.4,14.6,18.5,28.3,30.4q26.3,22.8,36.1,41.4c6.6,12.4,9.9,27,9.9,43.7q0,32.7-16.2,50.2C689,340.1,673.4,346,652.9,346S617.3,340.2,606.9,328.7Z" transform="translate(-71.1 -72.4)"/><path class="cls-1" d="M730.4,76.2h41.8V188.3L825.4,76.2h41.8l-49.8,97.6L868,342.2H824.3L788.9,223.6l-16.7,33.8v84.8H730.4Z" transform="translate(-71.1 -72.4)"/><path class="cls-1" d="M878.2,76.2h114v38H920v70.3h57.4v38H920v81.7h72.2v38h-114Z" transform="translate(-71.1 -72.4)"/><path class="cls-1" d="M1006.6,76.2h62q32.3,0,47.1,15t14.8,46.1v16.4q0,41.4-27.3,52.4v.8c10.1,3,17.3,9.2,21.4,18.6s6.3,21.9,6.3,37.6v46.8a178.4,178.4,0,0,0,.8,18.4,44.4,44.4,0,0,0,3.8,13.9h-42.6a61.8,61.8,0,0,1-3-12.2,181,181,0,0,1-.8-20.5V260.8c0-12.1-2-20.6-5.9-25.4s-10.7-7.2-20.3-7.2h-14.5v114h-41.8Zm57,114c8.4,0,14.7-2.2,18.9-6.5s6.2-11.5,6.2-21.7V141.5c0-9.6-1.7-16.6-5.1-20.9s-8.8-6.4-16.2-6.4h-19v76Z" transform="translate(-71.1 -72.4)"/></g><g id="Layer_3" data-name="Layer 3"><path class="cls-2" d="M106.4,339.8H87.3l44.4-104-54-14.5c-9-2.4-7.5-7.3-3.2-11.7l1.6-1.6c29.4-29.9,69.5-70.2,128.1-129.6h19.3L179.1,182.4l54.1,14.5c7.6,2,7.3,7.4,5.1,9.8l-1.7,2C147.3,298.8,106.4,339.8,106.4,339.8Z" transform="translate(-71.1 -72.4)"/></g></svg>